<svg xmlns="http://www.w3.org/2000/svg" width="512" height="512" viewBox="0 0 512 512">
  <rect width="512" height="512" fill="#070e07" rx="0"/>
  <path d="M128 320h256v32H128zM160 128h192c17.7 0 32 14.3 32 32v160H128V160c0-17.7 14.3-32 32-32z" fill="#10b981"/>
  <circle cx="176" cy="384" r="24" fill="#9ca3af"/>
  <circle cx="336" cy="384" r="24" fill="#9ca3af"/>
  <!-- Windows -->
  <rect x="200" y="168" width="40" height="30" rx="4" fill="#070e07" opacity="0.7"/>
  <rect x="256" y="168" width="40" height="30" rx="4" fill="#070e07" opacity="0.7"/>
  <rect x="312" y="168" width="40" height="30" rx="4" fill="#070e07" opacity="0.7"/>
  <!-- Door -->
  <rect x="218" y="220" width="60" height="100" rx="4" fill="#070e07" opacity="0.5"/>
  <rect x="282" y="220" width="60" height="100" rx="4" fill="#070e07" opacity="0.5"/>
  <!-- Pantograph / top detail -->
  <rect x="240" y="112" width="32" height="16" rx="8" fill="#10b981" opacity="0.8"/>
</svg>
